<svg xmlns="http://www.w3.org/2000/svg" viewBox="0 0 120 120" fill="none" stroke="#1a1a1a" stroke-width="2" stroke-linecap="round" stroke-linejoin="round">
  <!-- bat body -->
  <ellipse cx="60" cy="58" rx="10" ry="14"/>
  <!-- head -->
  <circle cx="60" cy="40" r="8"/>
  <!-- ears -->
  <path d="M54 34 L50 22 L56 32"/>
  <path d="M66 34 L70 22 L64 32"/>
  <!-- eyes -->
  <circle cx="57" cy="39" r="1.5" fill="#1a1a1a" stroke="none"/>
  <circle cx="63" cy="39" r="1.5" fill="#1a1a1a" stroke="none"/>
  <!-- left wing -->
  <path d="M50 52 Q30 40 18 28 Q22 48 20 62 Q30 56 40 58 Q44 60 50 60"/>
  <!-- right wing -->
  <path d="M70 52 Q90 40 102 28 Q98 48 100 62 Q90 56 80 58 Q76 60 70 60"/>
  <!-- wing fingers left -->
  <path d="M18 28 Q24 36 30 44"/>
  <path d="M20 62 Q28 54 36 52"/>
  <!-- wing fingers right -->
  <path d="M102 28 Q96 36 90 44"/>
  <path d="M100 62 Q92 54 84 52"/>
  <!-- feet -->
  <path d="M55 72 L53 80 M57 72 L56 80"/>
  <path d="M63 72 L64 80 M65 72 L67 80"/>
</svg>
