<svg xmlns="http://www.w3.org/2000/svg" viewBox="0 0 120 160">
  <!-- hot pink background -->
  <rect width="120" height="160" rx="0" fill="#ff3366"/>
  <!-- white dot pattern -->
  <!-- row 1 -->
  <circle cx="20" cy="20" r="1.5" fill="#ffffff" opacity="0.25"/>
  <circle cx="40" cy="20" r="1.5" fill="#ffffff" opacity="0.25"/>
  <circle cx="60" cy="20" r="1.5" fill="#ffffff" opacity="0.25"/>
  <circle cx="80" cy="20" r="1.5" fill="#ffffff" opacity="0.25"/>
  <circle cx="100" cy="20" r="1.5" fill="#ffffff" opacity="0.25"/>
  <!-- row 2 offset -->
  <circle cx="10" cy="35" r="1.5" fill="#ffffff" opacity="0.25"/>
  <circle cx="30" cy="35" r="1.5" fill="#ffffff" opacity="0.25"/>
  <circle cx="50" cy="35" r="1.5" fill="#ffffff" opacity="0.25"/>
  <circle cx="70" cy="35" r="1.5" fill="#ffffff" opacity="0.25"/>
  <circle cx="90" cy="35" r="1.5" fill="#ffffff" opacity="0.25"/>
  <circle cx="110" cy="35" r="1.5" fill="#ffffff" opacity="0.25"/>
  <!-- row 3 -->
  <circle cx="20" cy="50" r="1.5" fill="#ffffff" opacity="0.25"/>
  <circle cx="40" cy="50" r="1.5" fill="#ffffff" opacity="0.25"/>
  <circle cx="60" cy="50" r="1.5" fill="#ffffff" opacity="0.25"/>
  <circle cx="80" cy="50" r="1.5" fill="#ffffff" opacity="0.25"/>
  <circle cx="100" cy="50" r="1.5" fill="#ffffff" opacity="0.25"/>
  <!-- row 4 offset -->
  <circle cx="10" cy="65" r="1.5" fill="#ffffff" opacity="0.25"/>
  <circle cx="30" cy="65" r="1.5" fill="#ffffff" opacity="0.25"/>
  <circle cx="50" cy="65" r="1.5" fill="#ffffff" opacity="0.25"/>
  <circle cx="70" cy="65" r="1.5" fill="#ffffff" opacity="0.25"/>
  <circle cx="90" cy="65" r="1.5" fill="#ffffff" opacity="0.25"/>
  <circle cx="110" cy="65" r="1.5" fill="#ffffff" opacity="0.25"/>
  <!-- row 5 -->
  <circle cx="20" cy="95" r="1.5" fill="#ffffff" opacity="0.25"/>
  <circle cx="40" cy="95" r="1.5" fill="#ffffff" opacity="0.25"/>
  <circle cx="60" cy="95" r="1.5" fill="#ffffff" opacity="0.25"/>
  <circle cx="80" cy="95" r="1.5" fill="#ffffff" opacity="0.25"/>
  <circle cx="100" cy="95" r="1.5" fill="#ffffff" opacity="0.25"/>
  <!-- row 6 offset -->
  <circle cx="10" cy="110" r="1.5" fill="#ffffff" opacity="0.25"/>
  <circle cx="30" cy="110" r="1.5" fill="#ffffff" opacity="0.25"/>
  <circle cx="50" cy="110" r="1.5" fill="#ffffff" opacity="0.25"/>
  <circle cx="70" cy="110" r="1.5" fill="#ffffff" opacity="0.25"/>
  <circle cx="90" cy="110" r="1.5" fill="#ffffff" opacity="0.25"/>
  <circle cx="110" cy="110" r="1.5" fill="#ffffff" opacity="0.25"/>
  <!-- row 7 -->
  <circle cx="20" cy="125" r="1.5" fill="#ffffff" opacity="0.25"/>
  <circle cx="40" cy="125" r="1.5" fill="#ffffff" opacity="0.25"/>
  <circle cx="60" cy="125" r="1.5" fill="#ffffff" opacity="0.25"/>
  <circle cx="80" cy="125" r="1.5" fill="#ffffff" opacity="0.25"/>
  <circle cx="100" cy="125" r="1.5" fill="#ffffff" opacity="0.25"/>
  <!-- row 8 offset -->
  <circle cx="10" cy="140" r="1.5" fill="#ffffff" opacity="0.25"/>
  <circle cx="30" cy="140" r="1.5" fill="#ffffff" opacity="0.25"/>
  <circle cx="50" cy="140" r="1.5" fill="#ffffff" opacity="0.25"/>
  <circle cx="70" cy="140" r="1.5" fill="#ffffff" opacity="0.25"/>
  <circle cx="90" cy="140" r="1.5" fill="#ffffff" opacity="0.25"/>
  <circle cx="110" cy="140" r="1.5" fill="#ffffff" opacity="0.25"/>
  <!-- title text in white -->
  <text x="60" y="76" text-anchor="middle" font-family="Nunito, Helvetica, Arial, sans-serif" font-size="11" font-weight="700" fill="#ffffff" letter-spacing="0.5">Poking</text>
  <text x="60" y="90" text-anchor="middle" font-family="Nunito, Helvetica, Arial, sans-serif" font-size="11" font-weight="700" fill="#ffffff" letter-spacing="0.5">the Squid</text>
  <!-- decorative lines -->
  <line x1="35" y1="66" x2="85" y2="66" stroke="#ffffff" stroke-width="0.75" opacity="0.4"/>
  <line x1="35" y1="96" x2="85" y2="96" stroke="#ffffff" stroke-width="0.75" opacity="0.4"/>
</svg>
