<svg xmlns="http://www.w3.org/2000/svg" viewBox="0 0 120 120" fill="none" stroke="#1a1a1a" stroke-width="2" stroke-linecap="round" stroke-linejoin="round">
  <!-- left leg - bent position -->
  <!-- thigh -->
  <path d="M42 28 Q30 45 26 58" stroke-width="6" stroke="#1a1a1a" opacity="0.12"/>
  <path d="M42 28 Q30 45 26 58"/>
  <!-- shin -->
  <path d="M26 58 Q24 72 30 85" stroke-width="5" stroke="#1a1a1a" opacity="0.12"/>
  <path d="M26 58 Q24 72 30 85"/>
  <!-- foot with webbed toes -->
  <path d="M30 85 L22 96"/>
  <path d="M30 85 L28 98"/>
  <path d="M30 85 L34 97"/>
  <path d="M30 85 L40 94"/>
  <!-- webbing -->
  <path d="M22 96 Q25 94 28 98" opacity="0.4"/>
  <path d="M28 98 Q31 94 34 97" opacity="0.4"/>
  <path d="M34 97 Q37 93 40 94" opacity="0.4"/>

  <!-- right leg - bent position -->
  <!-- thigh -->
  <path d="M78 28 Q90 45 94 58" stroke-width="6" stroke="#1a1a1a" opacity="0.12"/>
  <path d="M78 28 Q90 45 94 58"/>
  <!-- shin -->
  <path d="M94 58 Q96 72 90 85" stroke-width="5" stroke="#1a1a1a" opacity="0.12"/>
  <path d="M94 58 Q96 72 90 85"/>
  <!-- foot with webbed toes -->
  <path d="M90 85 L98 96"/>
  <path d="M90 85 L92 98"/>
  <path d="M90 85 L86 97"/>
  <path d="M90 85 L80 94"/>
  <!-- webbing -->
  <path d="M98 96 Q95 94 92 98" opacity="0.4"/>
  <path d="M92 98 Q89 94 86 97" opacity="0.4"/>
  <path d="M86 97 Q83 93 80 94" opacity="0.4"/>

  <!-- muscle detail -->
  <path d="M34 40 Q30 48 28 52" opacity="0.3"/>
  <path d="M86 40 Q90 48 92 52" opacity="0.3"/>
</svg>
